<svg version="1.1" xmlns="http://www.w3.org/2000/svg" viewBox="0 0 426.78349437452346 302.9051773648489" width="426.78349437452346" height="302.9051773648489"><!-- svg-source:excalidraw --><metadata></metadata><defs><style class="style-fonts">
      </style></defs><rect x="0" y="0" width="426.78349437452346" height="302.9051773648489" fill="#121212"></rect><g stroke-linecap="round"><g transform="translate(30.61935470755634 20.28991485116771) rotate(0 0.4182268462116099 128.0458900498133)"><path d="M-0.42 0.82 C-0.4 43.33, -0.78 212.34, -0.9 254.92 M1.56 0.21 C2.04 42.84, 1.41 212.96, 1.34 255.88" stroke="#d3d3d3" stroke-width="2" fill="none"></path></g></g><mask></mask><g stroke-linecap="round"><g transform="translate(11.055900086462543 151.78185795468332) rotate(0 193.16339906305075 0.3539746702390971)"><path d="M-1.06 -0.55 C63.31 -0.92, 322.63 -1.24, 387.38 -1.02 M0.59 1.77 C64.71 2.03, 322.15 0.47, 386.53 -0.01" stroke="#d3d3d3" stroke-width="2" fill="none"></path></g></g><mask></mask><g transform="translate(36.21939132865009 85.88996673105052) rotate(0 168.79998779296875 60.39997100830078)" stroke="none"><path fill="#d3d3d3" d="M -1.63,64.94 Q -1.63,64.94 -1.35,62.77 -1.08,60.61 -0.47,57.98 0.12,55.36 1.09,52.58 2.06,49.79 3.16,46.49 4.26,43.19 5.18,39.65 6.10,36.12 7.19,32.41 8.29,28.70 8.98,26.07 9.67,23.44 10.19,20.74 10.71,18.03 11.11,16.24 11.50,14.46 11.89,12.42 12.29,10.37 12.54,9.09 12.79,7.82 13.10,6.70 13.42,5.58 13.76,3.61 14.10,1.64 14.75,0.00 15.41,-1.63 15.80,-2.78 16.18,-3.93 16.57,-4.97 16.95,-6.02 17.33,-7.37 17.72,-8.72 18.46,-10.53 19.21,-12.34 20.34,-14.25 21.47,-16.15 22.38,-17.57 23.30,-18.98 24.46,-20.24 25.63,-21.49 26.42,-22.83 27.21,-24.16 28.08,-25.45 28.96,-26.75 30.11,-27.95 31.26,-29.16 32.35,-30.53 33.43,-31.90 34.05,-33.03 34.67,-34.16 35.81,-35.43 36.94,-36.70 38.05,-37.39 39.17,-38.08 39.91,-39.07 40.66,-40.06 41.52,-40.83 42.37,-41.60 43.76,-42.07 45.14,-42.55 46.70,-43.42 48.27,-44.30 50.36,-46.00 52.45,-47.71 54.64,-48.90 56.83,-50.09 58.20,-50.28 59.57,-50.48 61.41,-50.63 63.25,-50.78 64.39,-50.80 65.52,-50.82 66.99,-50.88 68.47,-50.94 70.37,-50.97 72.28,-50.99 73.61,-51.04 74.93,-51.08 76.71,-51.09 78.49,-51.10 79.67,-51.14 80.84,-51.18 83.13,-50.21 85.41,-49.23 87.62,-48.43 89.83,-47.63 92.16,-46.72 94.49,-45.80 96.02,-45.73 97.54,-45.66 99.21,-44.86 100.88,-44.07 101.91,-42.98 102.94,-41.89 104.32,-41.01 105.69,-40.13 107.78,-39.12 109.87,-38.11 110.69,-36.99 111.50,-35.87 112.36,-35.11 113.21,-34.35 114.26,-33.25 115.30,-32.15 116.61,-30.23 117.92,-28.31 119.28,-26.26 120.63,-24.21 121.88,-22.58 123.13,-20.95 124.65,-19.19 126.17,-17.44 127.06,-15.76 127.94,-14.09 128.76,-12.92 129.58,-11.74 130.39,-10.72 131.20,-9.69 132.08,-7.93 132.96,-6.18 133.70,-5.09 134.44,-4.01 135.10,-2.87 135.76,-1.74 136.60,-0.22 137.45,1.28 138.26,2.40 139.07,3.51 139.93,5.28 140.80,7.04 141.37,8.95 141.95,10.85 143.55,12.74 145.16,14.62 146.06,16.45 146.96,18.29 147.62,19.56 148.27,20.83 149.13,23.07 149.99,25.31 150.80,26.66 151.62,28.01 152.44,29.07 153.26,30.14 154.29,31.77 155.32,33.41 156.06,35.36 156.80,37.31 157.52,38.44 158.24,39.57 159.04,41.27 159.83,42.98 160.74,44.00 161.66,45.02 162.45,46.17 163.24,47.31 163.98,48.20 164.71,49.10 165.56,50.76 166.41,52.43 167.30,53.41 168.19,54.40 169.00,56.26 169.81,58.13 170.64,59.09 171.47,60.05 172.49,61.00 173.51,61.94 174.73,63.65 175.95,65.35 177.05,66.46 178.16,67.57 179.21,70.02 180.27,72.47 181.42,73.71 182.57,74.95 183.89,77.39 185.20,79.83 186.57,81.81 187.93,83.80 189.19,85.13 190.44,86.45 191.76,88.85 193.08,91.24 194.08,92.65 195.08,94.07 196.01,95.86 196.94,97.65 197.95,99.44 198.96,101.23 200.05,102.39 201.15,103.56 202.36,105.27 203.57,106.99 204.57,108.86 205.57,110.74 206.46,111.94 207.35,113.13 208.24,114.85 209.13,116.57 210.10,118.31 211.07,120.05 212.89,122.85 214.72,125.64 215.53,126.89 216.35,128.13 217.19,129.86 218.03,131.60 218.98,132.65 219.93,133.69 221.07,135.39 222.21,137.09 223.17,138.26 224.13,139.42 225.19,141.07 226.26,142.71 228.33,143.99 230.40,145.26 231.46,146.94 232.52,148.62 233.33,149.68 234.14,150.74 234.95,151.70 235.76,152.66 237.21,154.49 238.65,156.33 239.29,157.23 239.93,158.14 241.57,158.41 243.21,158.69 244.23,159.58 245.25,160.48 246.61,161.23 247.96,161.98 248.63,162.95 249.29,163.93 250.64,163.89 251.98,163.85 254.24,164.65 256.50,165.46 257.76,165.54 259.01,165.61 260.53,165.64 262.06,165.66 263.74,165.66 265.42,165.66 267.26,165.65 269.10,165.65 270.65,165.63 272.20,165.62 273.79,165.61 275.38,165.60 277.07,165.59 278.77,165.58 279.89,165.24 281.01,164.89 282.25,164.53 283.48,164.17 285.45,163.97 287.42,163.78 289.02,163.76 290.61,163.74 291.87,163.05 293.14,162.35 295.36,161.44 297.59,160.53 299.30,159.67 301.00,158.81 302.48,158.00 303.96,157.18 304.94,155.67 305.92,154.16 307.38,152.86 308.83,151.57 309.96,151.32 311.08,151.07 311.80,149.52 312.52,147.97 313.42,146.87 314.33,145.77 315.48,145.51 316.63,145.25 317.83,143.61 319.03,141.98 319.67,140.81 320.30,139.65 321.12,138.22 321.94,136.79 322.69,135.98 323.45,135.16 324.26,133.52 325.08,131.89 325.60,130.78 326.11,129.68 326.91,127.26 327.71,124.83 328.21,123.59 328.71,122.35 329.24,121.19 329.77,120.03 330.43,118.15 331.08,116.27 331.18,115.16 331.29,114.06 331.67,112.97 332.05,111.88 332.46,110.11 332.87,108.33 333.27,107.27 333.66,106.21 333.67,105.07 333.67,103.93 334.10,101.27 334.52,98.60 334.67,98.12 334.82,97.64 335.12,97.23 335.41,96.83 335.82,96.54 336.23,96.25 336.72,96.10 337.20,95.96 337.70,95.98 338.20,95.99 338.67,96.17 339.15,96.35 339.54,96.66 339.93,96.98 340.19,97.41 340.46,97.83 340.58,98.32 340.70,98.81 340.65,99.31 340.61,99.82 340.40,100.28 340.20,100.74 339.86,101.11 339.52,101.48 339.08,101.72 338.64,101.97 338.15,102.06 337.66,102.15 337.16,102.08 336.66,102.01 336.21,101.78 335.76,101.55 335.41,101.19 335.06,100.84 334.84,100.38 334.62,99.93 334.55,99.43 334.49,98.93 334.59,98.44 334.68,97.95 334.94,97.51 335.19,97.08 335.56,96.74 335.94,96.41 336.40,96.21 336.87,96.02 337.37,95.98 337.87,95.94 338.36,96.07 338.85,96.20 339.27,96.47 339.69,96.74 340.00,97.14 340.31,97.53 340.48,98.01 340.65,98.48 340.66,98.98 340.67,99.49 340.67,99.49 340.67,99.48 340.22,101.02 339.77,102.57 339.68,104.45 339.60,106.34 339.14,107.70 338.68,109.05 338.47,110.88 338.27,112.71 337.70,113.69 337.14,114.67 336.76,117.07 336.38,119.47 335.83,120.62 335.28,121.76 334.59,123.13 333.91,124.49 333.48,125.63 333.05,126.76 332.63,128.11 332.21,129.45 331.90,130.77 331.59,132.09 331.09,133.26 330.59,134.43 329.94,136.01 329.29,137.59 328.58,138.66 327.87,139.73 327.18,140.65 326.49,141.57 325.93,143.37 325.37,145.17 324.25,146.31 323.13,147.44 322.24,148.20 321.35,148.95 319.24,150.47 317.12,151.98 316.30,153.29 315.49,154.60 313.54,155.75 311.59,156.89 310.50,157.92 309.42,158.95 307.61,160.92 305.79,162.88 303.98,163.87 302.18,164.87 300.00,165.81 297.83,166.74 296.09,167.69 294.35,168.64 291.81,169.39 289.27,170.15 287.79,170.18 286.32,170.22 285.12,170.37 283.92,170.53 281.34,171.27 278.77,172.01 277.07,172.00 275.38,171.99 273.79,171.98 272.20,171.97 270.65,171.95 269.10,171.94 267.24,171.93 265.39,171.92 263.65,171.90 261.92,171.87 260.13,171.78 258.33,171.68 257.27,171.54 256.20,171.40 253.84,170.59 251.47,169.78 249.74,169.43 248.02,169.08 246.55,168.27 245.08,167.47 244.32,166.37 243.55,165.26 242.51,164.25 241.47,163.24 240.27,163.06 239.08,162.87 237.64,162.02 236.21,161.17 235.33,159.91 234.46,158.66 233.34,157.07 232.23,155.48 231.41,154.38 230.60,153.28 229.76,152.03 228.91,150.79 228.24,149.59 227.58,148.39 226.83,147.63 226.07,146.87 224.69,145.88 223.31,144.89 222.20,143.32 221.09,141.75 220.16,140.46 219.24,139.17 218.12,137.64 217.01,136.10 215.89,134.65 214.78,133.20 214.00,131.60 213.22,130.00 212.40,128.50 211.58,127.01 210.89,125.40 210.21,123.78 209.23,122.78 208.24,121.79 207.13,119.97 206.01,118.15 205.24,116.60 204.48,115.05 203.63,113.64 202.79,112.24 201.87,110.55 200.95,108.86 199.80,107.29 198.66,105.72 197.47,104.27 196.29,102.81 195.17,100.97 194.05,99.13 193.22,97.49 192.39,95.85 191.41,94.29 190.43,92.73 189.25,90.67 188.08,88.62 186.72,87.13 185.36,85.64 183.82,83.55 182.28,81.47 181.08,79.42 179.89,77.38 178.38,75.72 176.87,74.06 176.01,72.25 175.14,70.43 173.88,69.15 172.62,67.87 171.52,66.51 170.42,65.14 169.23,63.97 168.04,62.80 166.93,61.33 165.82,59.85 165.30,58.55 164.78,57.24 163.64,55.86 162.49,54.48 161.79,53.13 161.09,51.78 160.34,50.69 159.59,49.59 159.05,48.60 158.52,47.61 157.39,46.16 156.26,44.71 155.50,43.15 154.74,41.59 153.97,40.15 153.20,38.70 152.59,37.14 151.99,35.58 150.94,34.06 149.88,32.54 149.05,31.28 148.22,30.02 147.31,28.45 146.40,26.88 145.37,24.80 144.33,22.73 143.78,21.48 143.23,20.24 142.37,18.72 141.51,17.19 140.59,15.93 139.68,14.67 138.81,13.52 137.93,12.36 137.34,10.74 136.75,9.13 135.97,7.71 135.19,6.29 134.29,5.03 133.38,3.76 132.36,2.21 131.34,0.67 130.85,-0.29 130.36,-1.25 129.49,-2.56 128.62,-3.86 127.86,-5.18 127.11,-6.50 126.25,-7.60 125.38,-8.70 124.41,-9.99 123.45,-11.27 121.98,-13.59 120.51,-15.91 118.90,-17.49 117.29,-19.08 116.05,-20.92 114.81,-22.76 113.27,-24.63 111.72,-26.49 110.94,-27.65 110.16,-28.81 108.97,-29.55 107.78,-30.29 106.96,-31.30 106.13,-32.31 105.13,-33.20 104.13,-34.10 102.44,-35.12 100.75,-36.14 99.21,-37.32 97.67,-38.49 96.43,-38.87 95.19,-39.24 94.13,-39.41 93.06,-39.58 91.02,-40.49 88.98,-41.40 87.43,-42.21 85.88,-43.03 84.72,-43.20 83.55,-43.37 82.20,-44.09 80.84,-44.81 79.67,-44.85 78.49,-44.89 76.71,-44.90 74.93,-44.91 73.61,-44.95 72.28,-45.00 70.38,-45.02 68.48,-45.04 67.03,-45.09 65.58,-45.14 64.48,-45.14 63.39,-45.13 61.80,-45.12 60.21,-45.10 58.61,-44.95 57.01,-44.79 55.12,-43.71 53.23,-42.63 51.23,-40.91 49.23,-39.19 47.79,-38.43 46.35,-37.68 45.27,-37.38 44.18,-37.09 42.15,-35.33 40.11,-33.57 39.26,-32.74 38.41,-31.91 37.61,-30.65 36.80,-29.40 35.61,-27.71 34.42,-26.02 33.48,-25.12 32.53,-24.22 31.71,-23.11 30.89,-22.00 29.86,-20.23 28.83,-18.46 27.88,-17.51 26.93,-16.57 26.11,-15.35 25.29,-14.14 24.51,-12.41 23.72,-10.68 23.21,-9.04 22.69,-7.40 21.87,-4.78 21.05,-2.16 20.65,-1.16 20.26,-0.16 19.15,2.27 18.04,4.70 17.77,5.85 17.51,7.01 16.74,8.93 15.97,10.85 15.16,13.05 14.35,15.24 13.84,16.88 13.34,18.53 12.81,21.32 12.28,24.12 11.59,26.80 10.90,29.47 9.84,33.14 8.77,36.81 7.85,40.43 6.93,44.06 5.86,47.39 4.79,50.73 3.90,53.36 3.02,56.00 2.51,58.47 2.00,60.94 1.81,63.11 1.63,65.28 1.58,65.47 1.54,65.67 1.45,65.84 1.36,66.02 1.23,66.17 1.10,66.32 0.94,66.43 0.78,66.55 0.60,66.62 0.41,66.69 0.22,66.72 0.02,66.75 -0.17,66.73 -0.36,66.71 -0.55,66.64 -0.73,66.57 -0.90,66.46 -1.06,66.35 -1.20,66.21 -1.33,66.06 -1.42,65.89 -1.52,65.71 -1.57,65.52 -1.62,65.33 -1.62,65.13 -1.63,64.93 -1.63,64.93 L -1.63,64.94 Z"></path></g><g stroke-linecap="round"><g transform="translate(56.21933029349384 152.2899148511677) rotate(0 0.5069095813366289 -33.43154622447676)"><path d="M-0.89 -0.97 C-1.02 -12.08, -0.6 -55.28, -0.24 -66.05 M0.85 1.13 C1.02 -10.4, 1.95 -56.55, 1.93 -67.99" stroke="#ff8383" stroke-width="2" fill="none"></path></g><g transform="translate(56.21933029349384 152.2899148511677) rotate(0 0.5069095813366289 -33.43154622447676)"><path d="M10.22 -44.41 C5.59 -54.43, 4.9 -60.18, 1.93 -67.99 M10.22 -44.41 C6.45 -53.28, 3.88 -61.17, 1.93 -67.99" stroke="#ff8383" stroke-width="2" fill="none"></path></g><g transform="translate(56.21933029349384 152.2899148511677) rotate(0 0.5069095813366289 -33.43154622447676)"><path d="M-6.88 -44.59 C-5.54 -54.43, -0.26 -60.11, 1.93 -67.99 M-6.88 -44.59 C-4.39 -53.35, -0.71 -61.17, 1.93 -67.99" stroke="#ff8383" stroke-width="2" fill="none"></path></g></g><mask></mask><g stroke-linecap="round"><g transform="translate(85.312426815673 151.32143666158194) rotate(0 0.04660778314661229 -51.77963184694295)"><path d="M0.8 -0.63 C0.92 -18.25, 0.18 -87.83, 0.16 -105.21 M-0.25 1.65 C-0.21 -15.84, -0.79 -86.33, -0.71 -103.88" stroke="#ff8383" stroke-width="2" fill="none"></path></g><g transform="translate(85.312426815673 151.32143666158194) rotate(0 0.04660778314661229 -51.77963184694295)"><path d="M7.9 -80.41 C4.61 -85.92, 2.85 -90.91, -0.71 -103.88 M7.9 -80.41 C5.45 -87.53, 3.37 -94.45, -0.71 -103.88" stroke="#ff8383" stroke-width="2" fill="none"></path></g><g transform="translate(85.312426815673 151.32143666158194) rotate(0 0.04660778314661229 -51.77963184694295)"><path d="M-9.2 -80.37 C-8.24 -86, -5.76 -91, -0.71 -103.88 M-9.2 -80.37 C-6.7 -87.4, -3.83 -94.34, -0.71 -103.88" stroke="#ff8383" stroke-width="2" fill="none"></path></g></g><mask></mask><g stroke-linecap="round"><g transform="translate(114.11238409106352 152.12148548970694) rotate(0 0.5548707418275285 -54.976914930590425)"><path d="M0.62 0.37 C0.75 -17.72, 1.52 -90.33, 1.62 -108.4 M-0.51 -0.49 C-0.54 -18.96, 0.91 -92.06, 1.11 -110.32" stroke="#ff8383" stroke-width="2" fill="none"></path></g><g transform="translate(114.11238409106352 152.12148548970694) rotate(0 0.5548707418275285 -54.976914930590425)"><path d="M9.29 -86.7 C6.86 -93.98, 3.9 -103.34, 1.11 -110.32 M9.29 -86.7 C6.3 -96.09, 3.65 -103.08, 1.11 -110.32" stroke="#ff8383" stroke-width="2" fill="none"></path></g><g transform="translate(114.11238409106352 152.12148548970694) rotate(0 0.5548707418275285 -54.976914930590425)"><path d="M-7.81 -86.96 C-3.94 -94.24, -0.61 -103.5, 1.11 -110.32 M-7.81 -86.96 C-4.64 -96.25, -1.12 -103.15, 1.11 -110.32" stroke="#ff8383" stroke-width="2" fill="none"></path></g></g><mask></mask><g stroke-linecap="round"><g transform="translate(144.51240850512602 152.92145802388663) rotate(0 0.48668340434318225 -48.968306551873695)"><path d="M0.42 0.06 C0.51 -16.18, -0.24 -81.68, -0.33 -97.99 M-0.81 -0.96 C-0.29 -17.05, 1.27 -81.07, 1.79 -97.08" stroke="#ff8383" stroke-width="2" fill="none"></path></g><g transform="translate(144.51240850512602 152.92145802388663) rotate(0 0.48668340434318225 -48.968306551873695)"><path d="M9.68 -73.36 C8.09 -80.61, 4.22 -85.63, 1.79 -97.08 M9.68 -73.36 C8.53 -79.05, 5.72 -84.1, 1.79 -97.08" stroke="#ff8383" stroke-width="2" fill="none"></path></g><g transform="translate(144.51240850512602 152.92145802388663) rotate(0 0.48668340434318225 -48.968306551873695)"><path d="M-7.42 -73.84 C-5.12 -81.04, -5.11 -85.95, 1.79 -97.08 M-7.42 -73.84 C-4.9 -79.35, -4.05 -84.3, 1.79 -97.08" stroke="#ff8383" stroke-width="2" fill="none"></path></g></g><mask></mask><g stroke-linecap="round"><g transform="translate(174.11232305590738 148.12145497212882) rotate(0 -0.17120718060181161 -23.86645345203462)"><path d="M-0.53 0.18 C-0.49 -7.63, -0.19 -39.15, -0.02 -47.03 M0.19 -0.21 C0.19 -8.17, -0.5 -40.2, -0.47 -47.91" stroke="#ff8383" stroke-width="2" fill="none"></path></g><g transform="translate(174.11232305590738 148.12145497212882) rotate(0 -0.17120718060181161 -23.86645345203462)"><path d="M7.83 -25.82 C6.14 -31.38, 4.07 -35.93, -0.47 -47.91 M7.83 -25.82 C5.58 -32.51, 2.36 -39.72, -0.47 -47.91" stroke="#ff8383" stroke-width="2" fill="none"></path></g><g transform="translate(174.11232305590738 148.12145497212882) rotate(0 -0.17120718060181161 -23.86645345203462)"><path d="M-8.31 -25.65 C-6 -31.17, -4.07 -35.77, -0.47 -47.91 M-8.31 -25.65 C-5.43 -32.41, -3.5 -39.67, -0.47 -47.91" stroke="#ff8383" stroke-width="2" fill="none"></path></g></g><mask></mask><g stroke-linecap="round"><g transform="translate(348.2780814815883 234.0464656689547) rotate(177.4810010072004 0.7662807056946122 -38.72514161360368)"><path d="M0.94 -0.57 C1.3 -13.7, 1.31 -66.05, 1.56 -79.2 M-0.03 1.75 C0.22 -11.17, 0.23 -64.49, 0.58 -77.86" stroke="#ff8383" stroke-width="2" fill="none"></path></g><g transform="translate(348.2780814815883 234.0464656689547) rotate(177.4810010072004 0.7662807056946122 -38.72514161360368)"><path d="M8.86 -54.27 C5.91 -60.23, 4.14 -64.69, 0.58 -77.86 M8.86 -54.27 C6.04 -59.73, 5.79 -65.95, 0.58 -77.86" stroke="#ff8383" stroke-width="2" fill="none"></path></g><g transform="translate(348.2780814815883 234.0464656689547) rotate(177.4810010072004 0.7662807056946122 -38.72514161360368)"><path d="M-8.24 -54.47 C-6.89 -60.52, -4.36 -64.92, 0.58 -77.86 M-8.24 -54.47 C-6.84 -59.97, -2.86 -66.14, 0.58 -77.86" stroke="#ff8383" stroke-width="2" fill="none"></path></g></g><mask></mask><g stroke-linecap="round"><g transform="translate(325.4093107721242 250.82265156712666) rotate(177.4810010072004 -0.35902805514547254 -46.30937751021969)"><path d="M-0.05 -0.38 C-0.07 -15.66, 0.88 -77.14, 0.83 -92.23 M-1.54 -1.63 C-1.73 -16.71, 0.28 -75.8, 0.32 -91.03" stroke="#ff8383" stroke-width="2" fill="none"></path></g><g transform="translate(325.4093107721242 250.82265156712666) rotate(177.4810010072004 -0.35902805514547254 -46.30937751021969)"><path d="M8.41 -67.38 C4.82 -74.94, 1.34 -85.85, 0.32 -91.03 M8.41 -67.38 C6.72 -75.74, 2.15 -84.52, 0.32 -91.03" stroke="#ff8383" stroke-width="2" fill="none"></path></g><g transform="translate(325.4093107721242 250.82265156712666) rotate(177.4810010072004 -0.35902805514547254 -46.30937751021969)"><path d="M-8.69 -67.71 C-5.81 -75.14, -2.82 -85.92, 0.32 -91.03 M-8.69 -67.71 C-4.37 -76.02, -2.93 -84.68, 0.32 -91.03" stroke="#ff8383" stroke-width="2" fill="none"></path></g></g><mask></mask><g stroke-linecap="round"><g transform="translate(299.59046725732094 253.44084419127316) rotate(177.4810010072004 -0.011384471545454744 -47.31389536510295)"><path d="M0.83 -0.64 C0.9 -16.32, 0.55 -78.8, 0.36 -94.47 M-0.19 1.64 C-0.3 -14.36, -1.14 -79.86, -0.77 -96.27" stroke="#ff8383" stroke-width="2" fill="none"></path></g><g transform="translate(299.59046725732094 253.44084419127316) rotate(177.4810010072004 -0.011384471545454744 -47.31389536510295)"><path d="M7.72 -72.76 C4.23 -80.22, 3.81 -88.29, -0.77 -96.27 M7.72 -72.76 C3.9 -81.13, 2.49 -88.56, -0.77 -96.27" stroke="#ff8383" stroke-width="2" fill="none"></path></g><g transform="translate(299.59046725732094 253.44084419127316) rotate(177.4810010072004 -0.011384471545454744 -47.31389536510295)"><path d="M-9.38 -72.8 C-7.82 -80.36, -3.18 -88.42, -0.77 -96.27 M-9.38 -72.8 C-7.51 -81.14, -3.23 -88.56, -0.77 -96.27" stroke="#ff8383" stroke-width="2" fill="none"></path></g></g><mask></mask><g stroke-linecap="round"><g transform="translate(271.5814377029395 244.64728808258187) rotate(177.4810010072004 0.6624876161041584 -42.75276803319062)"><path d="M-0.34 0.62 C-0.53 -13.31, -0.68 -69.99, -0.32 -84.21 M1.68 -0.1 C1.78 -14.34, 1.86 -72.24, 1.86 -86.13" stroke="#ff8383" stroke-width="2" fill="none"></path></g><g transform="translate(271.5814377029395 244.64728808258187) rotate(177.4810010072004 0.6624876161041584 -42.75276803319062)"><path d="M10.39 -62.62 C8.4 -73.02, 4.87 -78.11, 1.86 -86.13 M10.39 -62.62 C8.72 -69.69, 6.38 -76.01, 1.86 -86.13" stroke="#ff8383" stroke-width="2" fill="none"></path></g><g transform="translate(271.5814377029395 244.64728808258187) rotate(177.4810010072004 0.6624876161041584 -42.75276803319062)"><path d="M-6.71 -62.64 C-2.38 -72.98, 0.41 -78.06, 1.86 -86.13 M-6.71 -62.64 C-3.38 -69.61, -0.72 -75.92, 1.86 -86.13" stroke="#ff8383" stroke-width="2" fill="none"></path></g></g><mask></mask><g stroke-linecap="round"><g transform="translate(246.64713150298655 207.98830826249608) rotate(177.4810010072004 -0.11084243531422544 -21.437266605243167)"><path d="M-0.03 -0.44 C-0.15 -7.68, -0.61 -36.3, -0.58 -43.41 M-0.7 0.53 C-0.66 -6.67, 0.36 -35.74, 0.48 -42.92" stroke="#ff8383" stroke-width="2" fill="none"></path></g><g transform="translate(246.64713150298655 207.98830826249608) rotate(177.4810010072004 -0.11084243531422544 -21.437266605243167)"><path d="M7.29 -22.52 C4.27 -29.74, 2.12 -34.96, 0.48 -42.92 M7.29 -22.52 C5.53 -28.63, 3.51 -33.76, 0.48 -42.92" stroke="#ff8383" stroke-width="2" fill="none"></path></g><g transform="translate(246.64713150298655 207.98830826249608) rotate(177.4810010072004 -0.11084243531422544 -21.437266605243167)"><path d="M-7.41 -22.92 C-5.66 -30, -3.06 -35.1, 0.48 -42.92 M-7.41 -22.92 C-4.98 -28.94, -2.81 -33.96, 0.48 -42.92" stroke="#ff8383" stroke-width="2" fill="none"></path></g></g><mask></mask><g stroke-linecap="round"><g transform="translate(31.41934250052509 46.68990874765208) rotate(0 0.20953237279201176 -18.14606015314233)"><path d="M0.16 0.4 C0.35 -5.62, 0.8 -29.71, 0.85 -35.82 M-0.43 0.13 C-0.27 -6.08, 0.11 -30.71, 0.44 -36.69" stroke="#d3d3d3" stroke-width="2" fill="none"></path></g><g transform="translate(31.41934250052509 46.68990874765208) rotate(0 0.20953237279201176 -18.14606015314233)"><path d="M6.05 -19.58 C5.31 -23.6, 3.62 -28.39, 0.44 -36.69 M6.05 -19.58 C4.72 -23.77, 3.28 -28.45, 0.44 -36.69" stroke="#d3d3d3" stroke-width="2" fill="none"></path></g><g transform="translate(31.41934250052509 46.68990874765208) rotate(0 0.20953237279201176 -18.14606015314233)"><path d="M-6.26 -19.98 C-4.05 -23.91, -2.8 -28.61, 0.44 -36.69 M-6.26 -19.98 C-4.4 -24.1, -2.64 -28.67, 0.44 -36.69" stroke="#d3d3d3" stroke-width="2" fill="none"></path></g></g><mask></mask><g stroke-linecap="round"><g transform="translate(31.209779610154897 241.63595669376318) rotate(0 -0.09007119943953512 25.699610757706722)"><path d="M0.09 0.77 C0.22 9.08, 0.88 41.72, 1.15 49.96 M-1.33 0.13 C-1.42 8.59, -0.42 42.71, -0.03 51.27" stroke="#d3d3d3" stroke-width="2" fill="none"></path></g><g transform="translate(31.209779610154897 241.63595669376318) rotate(0 -0.09007119943953512 25.699610757706722)"><path d="M-9.41 28.1 C-5.02 34.96, -3.95 43.54, -0.03 51.27 M-9.41 28.1 C-6.18 34.24, -3.98 41.17, -0.03 51.27" stroke="#d3d3d3" stroke-width="2" fill="none"></path></g><g transform="translate(31.209779610154897 241.63595669376318) rotate(0 -0.09007119943953512 25.699610757706722)"><path d="M7.68 27.49 C6.46 34.56, 1.91 43.35, -0.03 51.27 M7.68 27.49 C6.01 33.69, 3.31 40.79, -0.03 51.27" stroke="#d3d3d3" stroke-width="2" fill="none"></path></g></g><mask></mask><g transform="translate(371.4193425005251 191.48992705819896) rotate(0 2.399993896484375 -19.20001220703125)" stroke="none"><path fill="#d3d3d3" d="M -2.60,-0.52 Q -2.60,-0.52 -2.39,-1.67 -2.17,-2.82 -2.11,-3.97 -2.05,-5.12 -1.74,-6.20 -1.42,-7.27 -1.13,-8.78 -0.84,-10.29 -0.83,-11.67 -0.81,-13.05 -0.41,-15.03 -0.00,-17.01 0.22,-19.02 0.46,-21.04 0.50,-22.79 0.55,-24.54 0.54,-25.99 0.53,-27.44 0.85,-28.63 1.18,-29.82 1.22,-31.04 1.25,-32.26 1.24,-33.43 1.23,-34.61 1.22,-36.50 1.22,-38.40 1.31,-38.97 1.41,-39.54 1.68,-40.05 1.95,-40.56 2.37,-40.96 2.79,-41.35 3.31,-41.60 3.84,-41.84 4.41,-41.90 4.99,-41.97 5.55,-41.84 6.12,-41.72 6.61,-41.42 7.11,-41.12 7.48,-40.68 7.86,-40.24 8.07,-39.70 8.29,-39.16 8.32,-38.59 8.35,-38.01 8.19,-37.45 8.04,-36.89 7.72,-36.41 7.39,-35.94 6.93,-35.59 6.47,-35.24 5.92,-35.05 5.37,-34.87 4.79,-34.87 4.22,-34.87 3.67,-35.05 3.12,-35.24 2.66,-35.59 2.20,-35.94 1.87,-36.42 1.55,-36.89 1.39,-37.45 1.24,-38.01 1.27,-38.59 1.30,-39.16 1.52,-39.70 1.73,-40.24 2.11,-40.68 2.48,-41.12 2.98,-41.42 3.47,-41.72 4.04,-41.84 4.60,-41.97 5.18,-41.90 5.75,-41.84 6.28,-41.60 6.80,-41.35 7.22,-40.96 7.64,-40.56 7.91,-40.05 8.18,-39.54 8.28,-38.96 8.37,-38.39 8.37,-38.39 8.37,-38.39 8.36,-36.09 8.35,-33.79 8.31,-32.51 8.28,-31.23 8.18,-30.11 8.08,-28.99 7.76,-27.28 7.44,-25.57 7.42,-24.26 7.41,-22.94 7.30,-21.57 7.20,-20.19 6.83,-18.43 6.46,-16.66 6.03,-15.52 5.60,-14.38 5.57,-13.20 5.53,-12.02 5.40,-10.91 5.27,-9.80 4.89,-8.71 4.52,-7.61 4.03,-6.05 3.53,-4.49 3.31,-3.13 3.09,-1.77 2.85,-0.62 2.60,0.52 2.50,0.82 2.40,1.13 2.23,1.40 2.06,1.67 1.83,1.89 1.60,2.12 1.32,2.28 1.05,2.44 0.74,2.53 0.43,2.62 0.11,2.63 -0.20,2.65 -0.51,2.58 -0.83,2.52 -1.12,2.39 -1.41,2.25 -1.66,2.05 -1.91,1.85 -2.10,1.59 -2.29,1.33 -2.42,1.04 -2.55,0.75 -2.60,0.43 -2.65,0.11 -2.63,-0.20 -2.60,-0.52 -2.60,-0.52 L -2.60,-0.52 Z"></path></g><g stroke-linecap="round"><g transform="translate(377.8193669145876 151.48992705819896) rotate(0 19.310958118279245 -0.925604715757089)"><path d="M0.21 0.04 C6.71 -0.25, 32.52 -1.6, 38.96 -1.89 M-0.34 -0.41 C6.07 -0.63, 31.96 -1.22, 38.41 -1.34" stroke="#d3d3d3" stroke-width="2" fill="none"></path></g><g transform="translate(377.8193669145876 151.48992705819896) rotate(0 19.310958118279245 -0.925604715757089)"><path d="M20.13 5.76 C25.59 3.22, 30.37 1.01, 38.41 -1.34 M20.13 5.76 C24.88 4.15, 30.51 2.02, 38.41 -1.34" stroke="#d3d3d3" stroke-width="2" fill="none"></path></g><g transform="translate(377.8193669145876 151.48992705819896) rotate(0 19.310958118279245 -0.925604715757089)"><path d="M19.84 -7.65 C25.37 -6.25, 30.23 -4.51, 38.41 -1.34 M19.84 -7.65 C24.64 -5.54, 30.35 -3.94, 38.41 -1.34" stroke="#d3d3d3" stroke-width="2" fill="none"></path></g></g><mask></mask></svg>